<svg width="150" height="78" xmlns="http://www.w3.org/2000/svg" xmlns:xlink="http://www.w3.org/1999/xlink"><defs><path id="a" d="M.021.197h149.733v64.706H.021z"/><path id="c" d="M.08.242h47.647v7.149H.08z"/></defs><g fill="none" fill-rule="evenodd"><mask id="b" fill="#fff"><use xlink:href="#a"/></mask><path fill="#9B8542" mask="url(#b)" d="M.021 64.903h149.733v-.695H.021zm120.626-26.745c-4.145-1.116-8.651-1.366-12.68-2.845-1.384-.508-2.622-1.754-3.9-2.492-1.727-.997-3.767-1.303-5.491-2.406-3.51-2.241-5.992-8.909-7.386-12.678-.15-.409-1.478.148-1.65.378l-.985 1.313c-3.022-3.174-5.106-6.313-6.706-10.557-.138-.374-1.515.105-1.652.378-.059.12-.127.232-.19.35-.972-3.255-2.85-6.028-4.047-9.267-.131-.357-1.279.093-1.466.218-2.13 1.429-3.858 2.302-4.89 4.76-.616.835-1.13 1.784-1.641 2.641l-.92-.926c-4.416 5.28-6.508 8.7-11.128 12.931-.007-.172-.143-.352-.486-.54-7.81 8.101-18.13 12.623-25.183 16.945l-4.17 2.109c5.213-.309 18.482-7.929 22.468-10.708 3.066-1.853 4.188-3.068 7.053-1.03 4.114-2.663 16.355-15.259 15.891-22.228.738-1.432 1.8-2.284 3.049-3.125 1.43 3.565 4.175 14.158 4.827 18.037.061.362.943-7.656 1.073-7.913.112-.23 1.25-.677 1.371-.899 1.674 3.886 2.13 2.738 6.28 12.159.165.38 2.03-1.871 2.232-2.143.225-.3.367-1.737.592-2.037 1.503 3.966 2.142 10.824 5.393 13.156.915.656 2.74.534 3.816.857 2.498.748 4.273 1.355 6.467 2.622 3.494 2.018 9.617 2.358 13.5 3.403.372.1 1.006-.343.559-.463"/><path d="M2.841 57.818V55.52c1.364.511 2.904.767 4.623.767 2.086 0 3.129-.703 3.129-2.107 0-1.022-.64-1.533-1.921-1.533H6.35c-2.784 0-4.175-1.277-4.175-3.831 0-2.81 1.98-4.215 5.944-4.215 1.522 0 2.964.224 4.328.671v2.298a12.234 12.234 0 0 0-4.328-.765c-2.283 0-3.424.67-3.424 2.01 0 1.022.552 1.533 1.655 1.533h2.32c2.962 0 4.442 1.278 4.442 3.832 0 2.873-1.883 4.31-5.65 4.31-1.718 0-3.258-.224-4.622-.67m33.61-13.124v2.184h-6.43v3.448h6.106v2.27H29.99v3.592h6.591v2.203h-9.064V44.696h8.931M57.217 56.19c2.822 0 4.233-1.673 4.233-5.019 0-2.848-1.411-4.272-4.233-4.272h-2.996v9.291h2.996zm-5.516 2.203V44.696h5.897c4.248 0 6.372 2.159 6.372 6.475 0 4.815-2.124 7.222-6.372 7.222H51.7zm33.408-2.107c2.739 0 4.109-1.594 4.109-4.78 0-3.135-1.37-4.702-4.11-4.702-2.808 0-4.212 1.567-4.212 4.702 0 3.186 1.404 4.78 4.213 4.78zm-6.829-4.722c0-4.643 2.276-6.964 6.829-6.964 4.483 0 6.724 2.321 6.724 6.964 0 4.616-2.241 6.925-6.724 6.925-4.35 0-6.626-2.309-6.829-6.925zm28.338 6.829V44.696h2.521l7.561 9.789v-9.789h2.426v13.697h-2.521l-7.561-10v10h-2.426m26.58 0l5.773-13.697h2.71l5.897 13.697h-2.71l-1.712-3.736H138.8l.865-2.203h2.825l-2.226-5.143-4.48 11.082h-2.586M31.103 70.88v1.137H29.09v5.934h-1.301v-5.934h-2.014v-1.138h5.328m5.914 7.071l2.981-7.07h1.4l3.044 7.07h-1.4l-.884-1.928H39.91l.447-1.137h1.458l-1.15-2.655-2.312 5.72h-1.336m14.69 0v-7.07h3.29c1.335 0 2.003.598 2.003 1.794 0 1.408-.964 2.264-2.892 2.567l-.187-1.167c1.146-.214 1.719-.668 1.719-1.36 0-.455-.243-.682-.727-.682h-1.905v5.919h-1.301" fill="#FFF"/><g transform="translate(64.136 70.588)"><mask id="d" fill="#fff"><use xlink:href="#c"/></mask><path fill="#FFF" mask="url(#d)" d="M.08 7.362V.292h1.302v2.917h3.461V.29h1.301v7.071h-1.3V4.346H1.381v3.016H.08m17.223-1.087c1.414 0 2.12-.823 2.12-2.468 0-1.618-.706-2.428-2.12-2.428-1.45 0-2.175.81-2.175 2.428 0 1.645.725 2.468 2.175 2.468zm-3.525-2.438c0-2.397 1.174-3.595 3.525-3.595 2.314 0 3.472 1.198 3.472 3.595 0 2.383-1.158 3.575-3.472 3.575-2.246 0-3.42-1.192-3.525-3.575zm14.629.746V.291h1.302v4.292c0 1.128.572 1.692 1.718 1.692s1.718-.564 1.718-1.692V.291h1.302v4.292c0 1.886-1.007 2.829-3.02 2.829s-3.02-.943-3.02-2.829m14.017 2.483V5.879c.704.264 1.499.396 2.386.396 1.077 0 1.616-.363 1.616-1.088 0-.528-.33-.791-.992-.791h-1.198c-1.437 0-2.155-.66-2.155-1.978 0-1.45 1.022-2.176 3.068-2.176.786 0 1.53.116 2.234.346v1.187a6.314 6.314 0 0 0-2.234-.396c-1.178 0-1.767.347-1.767 1.039 0 .527.284.79.854.79h1.198c1.529 0 2.293.66 2.293 1.979 0 1.483-.972 2.225-2.917 2.225-.887 0-1.682-.115-2.386-.346"/></g><path fill="#FFF" d="M123.91 70.88v1.127h-3.32v1.78h3.153v1.172h-3.167v1.854h3.403v1.138h-4.68v-7.072h4.61"/></g></svg>